<?xml version="1.0" standalone="no"?>
<!DOCTYPE svg PUBLIC "-//W3C//DTD SVG 20010904//EN"
 "http://www.w3.org/TR/2001/REC-SVG-20010904/DTD/svg10.dtd">
<svg version="1.0" xmlns="http://www.w3.org/2000/svg"
 width="1600.000000pt" height="1600.000000pt" viewBox="0 0 1600.000000 1600.000000"
 preserveAspectRatio="xMidYMid meet">
<metadata>
Created by potrace 1.14, written by Peter Selinger 2001-2017
</metadata>
<g transform="translate(0.000000,1600.000000) scale(0.100000,-0.100000)"
fill="#000000" stroke="none">
<path d="M7785 14647 c-47 -18 -435 -144 -855 -277 -214 -68 -649 -207 -895
-287 -93 -30 -197 -63 -230 -73 -33 -10 -195 -62 -360 -115 -165 -53 -307 -98
-315 -100 -8 -2 -35 -10 -60 -19 -25 -8 -256 -82 -515 -165 -258 -82 -477
-152 -485 -155 -8 -2 -123 -39 -255 -81 -132 -42 -346 -110 -475 -152 -129
-41 -300 -95 -380 -120 -80 -25 -154 -49 -165 -53 -11 -5 -101 -34 -200 -65
-99 -31 -191 -60 -205 -65 -14 -5 -119 -39 -235 -75 -115 -37 -237 -76 -270
-87 -33 -10 -67 -21 -75 -23 -8 -2 -94 -29 -190 -61 -96 -31 -197 -62 -224
-69 -26 -8 -51 -17 -55 -20 -3 -4 -6 -1932 -7 -4285 l0 -4279 73 -30 c40 -17
75 -31 78 -31 3 0 25 -9 48 -19 23 -10 74 -31 112 -46 39 -15 84 -33 100 -40
30 -13 829 -335 1110 -447 83 -33 164 -66 180 -73 17 -7 145 -59 285 -115 140
-56 269 -108 285 -115 30 -13 481 -195 685 -276 58 -23 119 -47 135 -54 44
-19 892 -361 1010 -407 55 -22 119 -48 142 -59 24 -10 47 -19 51 -19 5 0 22
-6 38 -14 26 -13 396 -162 1474 -596 206 -83 384 -155 395 -160 11 -5 54 -22
95 -38 41 -17 137 -55 214 -86 76 -31 146 -56 156 -56 9 0 89 29 176 64 87 35
245 98 349 140 105 42 199 81 210 86 11 5 90 37 175 71 85 33 169 67 185 74
17 7 62 25 100 40 39 15 84 33 100 40 17 7 122 50 235 95 113 45 286 115 385
155 99 40 333 134 520 209 187 75 349 141 360 146 11 5 61 25 110 45 50 20 99
40 110 45 11 5 135 55 275 110 140 56 269 108 285 115 17 7 145 59 285 115
239 96 419 168 1250 503 184 74 409 165 500 201 91 37 174 71 185 76 11 5 207
84 435 176 228 91 420 168 426 170 7 3 10 1267 10 4286 l-1 4282 -120 38 c-66
22 -124 40 -130 42 -5 1 -26 7 -45 13 -56 18 -304 97 -440 141 -69 22 -219 70
-335 107 -115 37 -230 74 -255 82 -25 8 -79 25 -120 38 -41 13 -138 44 -215
68 -77 25 -241 78 -365 117 -124 39 -288 92 -365 116 -77 25 -187 60 -245 79
-244 77 -797 255 -825 264 -62 20 -330 105 -335 106 -3 0 -84 26 -180 57 -427
137 -566 182 -575 184 -5 1 -73 23 -150 47 -661 212 -960 308 -1370 438 -137
44 -293 95 -345 114 -94 33 -97 33 -255 32 -133 -1 -169 -4 -210 -20z m-453
-1539 c5 -18 3 -6437 -3 -6441 -2 -2 -434 -171 -959 -375 -888 -344 -2332
-905 -2690 -1044 -85 -33 -245 -95 -355 -138 -515 -201 -648 -251 -653 -246
-6 6 -10 6685 -4 6721 4 22 -9 17 532 193 777 253 1039 338 1160 379 74 24
142 46 150 48 8 2 69 22 135 43 66 22 316 104 555 182 239 78 543 177 675 220
132 43 409 133 615 200 206 68 474 155 595 195 121 40 225 74 231 74 7 1 14
-5 16 -11z m1533 -47 c333 -109 1048 -342 1250 -408 353 -115 627 -204 730
-238 103 -34 622 -203 1005 -327 118 -38 240 -78 270 -88 61 -21 407 -134 890
-290 173 -57 317 -106 320 -110 7 -11 5 -6728 -2 -6735 -3 -3 -23 0 -44 8 -67
24 -518 197 -539 207 -11 5 -74 30 -140 54 -66 25 -185 70 -265 101 -80 31
-170 66 -200 77 l-56 20 1 2445 c0 2163 -2 2446 -15 2453 -14 7 -76 27 -560
180 -102 32 -234 74 -295 93 -60 20 -177 56 -260 82 -82 26 -159 50 -170 55
-11 5 -78 26 -150 48 -71 22 -267 84 -435 137 -508 162 -549 173 -552 161 -2
-6 -4 -1070 -3 -2364 0 -1605 -3 -2351 -10 -2347 -5 3 -17 8 -25 11 -8 3 -224
90 -479 193 l-465 188 -1 3219 c0 1770 1 3222 3 3227 5 11 3 11 197 -52z"/>
<path d="M6305 10985 c-22 -7 -128 -41 -235 -75 -207 -65 -433 -136 -775 -245
-386 -122 -419 -133 -570 -180 -82 -26 -211 -67 -285 -91 -74 -23 -223 -70
-330 -104 l-195 -62 0 -1464 c0 -1392 1 -1464 18 -1464 9 0 25 4 35 10 9 5
105 44 212 86 107 42 344 134 525 206 534 210 674 265 980 384 160 63 298 118
307 124 10 5 23 10 29 10 6 0 25 6 42 14 18 8 86 36 152 61 66 26 124 51 130
56 10 10 15 2750 5 2748 -3 0 -23 -7 -45 -14z"/>
</g>
</svg>
